<svg id="Group_515" data-name="Group 515" xmlns="http://www.w3.org/2000/svg" width="74.016"
  height="74.016" viewBox="0 0 74.016 74.016">
  <g id="Group_502" data-name="Group 502" transform="translate(0 0)">
    <g id="Group_501" data-name="Group 501" transform="translate(0 0)">
      <path id="Path_1368" data-name="Path 1368"
        d="M72.783,0H1.234A1.233,1.233,0,0,0,0,1.233H0V25.905H2.467V2.467H71.548V29.606H28.373v2.467H72.782a1.233,1.233,0,0,0,1.234-1.233h0V1.234A1.233,1.233,0,0,0,72.783,0Z"
        transform="translate(0 0)" fill="#fff"></path>
    </g>
  </g>
  <g id="Group_504" data-name="Group 504" transform="translate(40.477 5.782)">
    <g id="Group_503" data-name="Group 503" transform="translate(0 0)">
      <rect id="Rectangle_391" data-name="Rectangle 391" width="26" height="2"
        transform="translate(-0.477 0.233)" fill="#fff"></rect>
    </g>
  </g>
  <g id="Group_506" data-name="Group 506" transform="translate(43.947 13.878)">
    <g id="Group_505" data-name="Group 505" transform="translate(0 0)">
      <rect id="Rectangle_392" data-name="Rectangle 392" width="25" height="2"
        transform="translate(0.053 0.138)" fill="#fff"></rect>
    </g>
  </g>
  <g id="Group_508" data-name="Group 508" transform="translate(39.321 20.817)">
    <g id="Group_507" data-name="Group 507" transform="translate(0 0)">
      <rect id="Rectangle_393" data-name="Rectangle 393" width="25" height="2"
        transform="translate(-0.321 0.199)" fill="#fff"></rect>
    </g>
  </g>
  <g id="Group_510" data-name="Group 510" transform="translate(0 4.934)">
    <g id="Group_509" data-name="Group 509" transform="translate(0)">
      <path id="Path_1369" data-name="Path 1369"
        d="M39.377,37.7a3.981,3.981,0,0,0-5.2-2.146l-.1.045-10,5.189a6.1,6.1,0,0,0,.606-2.62,6.168,6.168,0,1,0-11.071,3.7H13.55a8.465,8.465,0,0,0-7.864,5.477L2.393,58.7a3.951,3.951,0,1,0,7.419,2.718l1.29-4.106V75.162a6.15,6.15,0,0,0-8,9.308A5.683,5.683,0,0,0,0,89.51V99.848a1.233,1.233,0,0,0,1.233,1.234H13.57A1.233,1.233,0,0,0,14.8,99.848h0V89.51a5.67,5.67,0,0,0-2.2-4.466h9.337a5.669,5.669,0,0,0-2.2,4.466V99.848a1.233,1.233,0,0,0,1.233,1.234H33.307a1.233,1.233,0,0,0,1.234-1.233h0V89.51a5.683,5.683,0,0,0-3.1-5.041,6.163,6.163,0,0,0-5.538-10.448V48.786l11.325-5.88A3.981,3.981,0,0,0,39.377,37.7ZM18.5,34.467a3.7,3.7,0,1,1-3.7,3.7A3.7,3.7,0,0,1,18.5,34.467ZM7.4,76.364a3.7,3.7,0,1,1-3.7,3.7A3.7,3.7,0,0,1,7.4,76.364Zm4.934,22.25H2.467v-9.1A3.237,3.237,0,0,1,5.7,86.278H9.1a3.237,3.237,0,0,1,3.233,3.232Zm19.738-9.1v9.1H22.2v-9.1a3.237,3.237,0,0,1,3.233-3.232h3.4A3.237,3.237,0,0,1,32.073,89.51ZM27.139,76.364a3.7,3.7,0,1,1-3.7,3.7A3.7,3.7,0,0,1,27.139,76.364Zm9.98-36.6a1.587,1.587,0,0,1-.931.913L24.1,46.942a1.234,1.234,0,0,0-.666,1.1V75.162a6.085,6.085,0,0,0-1.919,7.416H19.738V61.606H17.27V82.577H13.022a6.111,6.111,0,0,0,.543-2.467h0V49.27a1.234,1.234,0,0,0-2.41-.37L7.476,60.622a1.483,1.483,0,0,1-2.058.82,1.514,1.514,0,0,1-.689-1.959l3.293-11.35a5.96,5.96,0,0,1,5.528-3.8h8.735a1.229,1.229,0,0,0,.568-.138l12.261-6.364a1.519,1.519,0,0,1,1.941.719A1.5,1.5,0,0,1,37.119,39.759Z"
        transform="translate(0 -32)" fill="#fff"></path>
    </g>
  </g>
  <g id="Group_512" data-name="Group 512" transform="translate(39.475 46.818)">
    <g id="Group_511" data-name="Group 511">
      <path id="Path_1370" data-name="Path 1370"
        d="M267.706,314.2a6.168,6.168,0,1,0-8.722-.114q.056.058.114.114a5.683,5.683,0,0,0-3.1,5.041v10.337a1.233,1.233,0,0,0,1.233,1.234H269.57a1.233,1.233,0,0,0,1.234-1.233h0V319.245A5.683,5.683,0,0,0,267.706,314.2Zm-4.3-8.106a3.7,3.7,0,1,1-3.7,3.7A3.7,3.7,0,0,1,263.4,306.1Zm4.934,22.25h-9.869v-9.1a3.237,3.237,0,0,1,3.233-3.232h3.4a3.237,3.237,0,0,1,3.233,3.232Z"
        transform="translate(-256 -303.618)" fill="#fff"></path>
    </g>
  </g>
  <g id="Group_514" data-name="Group 514" transform="translate(59.213 46.818)">
    <g id="Group_513" data-name="Group 513">
      <path id="Path_1371" data-name="Path 1371"
        d="M395.706,314.2a6.168,6.168,0,1,0-8.722-.114q.056.058.114.114a5.683,5.683,0,0,0-3.1,5.041v10.337a1.233,1.233,0,0,0,1.233,1.234H397.57a1.233,1.233,0,0,0,1.234-1.233h0V319.245A5.683,5.683,0,0,0,395.706,314.2Zm-4.3-8.106a3.7,3.7,0,1,1-3.7,3.7A3.7,3.7,0,0,1,391.4,306.1Zm4.934,22.25h-9.869v-9.1a3.237,3.237,0,0,1,3.233-3.232h3.4a3.237,3.237,0,0,1,3.233,3.232Z"
        transform="translate(-384 -303.618)" fill="#fff"></path>
    </g>
  </g>
</svg>