<svg xmlns="http://www.w3.org/2000/svg" width="78.19" height="64.519">
  <g id="Icon_feather-users" data-name="Icon feather-users" transform="translate(1.5 1.5)">
    <path id="Path_9" data-name="Path 9"
      d="M56.184,43.006V36.171A13.671,13.671,0,0,0,42.513,22.5H15.171A13.671,13.671,0,0,0,1.5,36.171v6.835"
      transform="translate(-1.5 18.513)" fill="none" stroke="#fff" stroke-linecap="round"
      stroke-linejoin="round" stroke-width="3"></path>
    <path id="Path_10" data-name="Path 10"
      d="M34.842,18.171A13.671,13.671,0,1,1,21.171,4.5,13.671,13.671,0,0,1,34.842,18.171Z"
      transform="translate(6.171 -4.5)" fill="none" stroke="#fff" stroke-linecap="round"
      stroke-linejoin="round" stroke-width="3"></path>
    <path id="Path_11" data-name="Path 11" d="M40.253,42.757V35.922A13.671,13.671,0,0,0,30,22.7"
      transform="translate(34.937 18.762)" fill="none" stroke="#fff" stroke-linecap="round"
      stroke-linejoin="round" stroke-width="3"></path>
    <path id="Path_12" data-name="Path 12" d="M24,4.7a13.671,13.671,0,0,1,0,26.487"
      transform="translate(27.266 -4.251)" fill="none" stroke="#fff" stroke-linecap="round"
      stroke-linejoin="round" stroke-width="3"></path>
  </g>
</svg>